<mxfile host="www.draw.io" modified="2019-12-15T23:08:34.949Z" agent="Mozilla/5.0 (X11; Ubuntu; Linux x86_64; rv:71.0) Gecko/20100101 Firefox/71.0" etag="ijDnwrn0Ge8cfDdg9jfY" version="12.4.2" type="github" pages="2">
  <diagram id="LOb9DJNmsq7_m7eezj4-" name="one">
    <mxGraphModel dx="2880" dy="1497" grid="1" gridSize="10" guides="1" tooltips="1" connect="1" arrows="1" fold="1" page="1" pageScale="1" pageWidth="1169" pageHeight="827" math="0" shadow="0">
      <root>
        <mxCell id="0"/>
        <mxCell id="1" parent="0"/>
        <mxCell id="nszsezrRDMAvSKFirYBr-1" value="" style="endArrow=classic;html=1;strokeWidth=3;fontSize=22;" parent="1" edge="1">
          <mxGeometry width="50" height="50" relative="1" as="geometry">
            <mxPoint x="91.14" y="407" as="sourcePoint"/>
            <mxPoint x="303.44" y="407" as="targetPoint"/>
          </mxGeometry>
        </mxCell>
        <mxCell id="nszsezrRDMAvSKFirYBr-2" value="Open Application" style="text;html=1;align=center;verticalAlign=middle;resizable=0;points=[];;autosize=1;fontStyle=1;strokeWidth=3;fontSize=22;" parent="1" vertex="1">
          <mxGeometry x="60" y="360" width="200" height="30" as="geometry"/>
        </mxCell>
        <mxCell id="nszsezrRDMAvSKFirYBr-4" value="&lt;font style=&quot;font-size: 22px;&quot;&gt;&lt;b style=&quot;font-size: 22px;&quot;&gt;Login Activity&lt;/b&gt;&lt;/font&gt;" style="rounded=1;whiteSpace=wrap;html=1;strokeWidth=3;fontSize=22;" parent="1" vertex="1">
          <mxGeometry x="281.14" y="342" width="200" height="138" as="geometry"/>
        </mxCell>
        <mxCell id="nszsezrRDMAvSKFirYBr-5" value="" style="endArrow=classic;html=1;entryX=-0.01;entryY=0.381;entryDx=0;entryDy=0;strokeWidth=3;fontSize=22;exitX=1;exitY=0.25;exitDx=0;exitDy=0;entryPerimeter=0;" parent="1" target="nszsezrRDMAvSKFirYBr-9" edge="1" source="nszsezrRDMAvSKFirYBr-4">
          <mxGeometry width="50" height="50" relative="1" as="geometry">
            <mxPoint x="423.44" y="406.40999999999997" as="sourcePoint"/>
            <mxPoint x="593.4399999999999" y="406.40999999999997" as="targetPoint"/>
          </mxGeometry>
        </mxCell>
        <mxCell id="nszsezrRDMAvSKFirYBr-6" value="" style="endArrow=classic;html=1;entryX=0;entryY=0.5;entryDx=0;entryDy=0;exitX=0.5;exitY=0;exitDx=0;exitDy=0;strokeWidth=3;fontSize=22;edgeStyle=orthogonalEdgeStyle;" parent="1" source="nszsezrRDMAvSKFirYBr-4" target="nszsezrRDMAvSKFirYBr-8" edge="1">
          <mxGeometry width="50" height="50" relative="1" as="geometry">
            <mxPoint x="363.44" y="327.0000000000001" as="sourcePoint"/>
            <mxPoint x="454.03" y="327" as="targetPoint"/>
          </mxGeometry>
        </mxCell>
        <mxCell id="nszsezrRDMAvSKFirYBr-8" value="&lt;font style=&quot;font-size: 22px;&quot;&gt;&lt;b style=&quot;font-size: 22px;&quot;&gt;Visit The Company&lt;/b&gt;&lt;/font&gt;" style="rounded=1;whiteSpace=wrap;html=1;strokeWidth=3;fontSize=22;" parent="1" vertex="1">
          <mxGeometry x="601.14" y="160" width="180" height="100" as="geometry"/>
        </mxCell>
        <mxCell id="nszsezrRDMAvSKFirYBr-9" value="&lt;font style=&quot;font-size: 22px;&quot;&gt;&lt;b style=&quot;font-size: 22px;&quot;&gt;Main Activity&lt;/b&gt;&lt;/font&gt;" style="rounded=1;whiteSpace=wrap;html=1;strokeWidth=3;fontSize=22;" parent="1" vertex="1">
          <mxGeometry x="681.14" y="340" width="170" height="97" as="geometry"/>
        </mxCell>
        <mxCell id="nszsezrRDMAvSKFirYBr-19" value="&lt;font style=&quot;font-size: 22px;&quot;&gt;&lt;b style=&quot;font-size: 22px;&quot;&gt;Chat Activity&lt;/b&gt;&lt;/font&gt;" style="rounded=1;whiteSpace=wrap;html=1;strokeWidth=3;fontSize=22;" parent="1" vertex="1">
          <mxGeometry x="1026.14" y="497" width="165" height="93" as="geometry"/>
        </mxCell>
        <mxCell id="nszsezrRDMAvSKFirYBr-10" value="Non-Membership" style="text;html=1;align=center;verticalAlign=middle;resizable=0;points=[];;autosize=1;fontStyle=1;strokeWidth=3;fontSize=22;" parent="1" vertex="1">
          <mxGeometry x="370.44" y="175" width="200" height="30" as="geometry"/>
        </mxCell>
        <mxCell id="nszsezrRDMAvSKFirYBr-11" value="Enter Username &amp;amp; PassWord" style="text;html=1;align=center;verticalAlign=middle;resizable=0;points=[];;autosize=1;fontStyle=1;strokeWidth=3;fontSize=22;" parent="1" vertex="1">
          <mxGeometry x="416.14" y="300" width="320" height="30" as="geometry"/>
        </mxCell>
        <mxCell id="nszsezrRDMAvSKFirYBr-12" value="" style="endArrow=classic;html=1;strokeWidth=3;fontSize=22;entryX=0;entryY=0.5;entryDx=0;entryDy=0;exitX=1;exitY=0.5;exitDx=0;exitDy=0;" parent="1" edge="1" target="nszsezrRDMAvSKFirYBr-13" source="nszsezrRDMAvSKFirYBr-9">
          <mxGeometry width="50" height="50" relative="1" as="geometry">
            <mxPoint x="761.14" y="407" as="sourcePoint"/>
            <mxPoint x="921.14" y="407" as="targetPoint"/>
          </mxGeometry>
        </mxCell>
        <mxCell id="nszsezrRDMAvSKFirYBr-16" value="" style="edgeStyle=orthogonalEdgeStyle;rounded=0;orthogonalLoop=1;jettySize=auto;html=1;strokeWidth=3;fontSize=22;" parent="1" source="nszsezrRDMAvSKFirYBr-13" target="nszsezrRDMAvSKFirYBr-15" edge="1">
          <mxGeometry relative="1" as="geometry"/>
        </mxCell>
        <mxCell id="nszsezrRDMAvSKFirYBr-13" value="&lt;font style=&quot;font-size: 22px;&quot;&gt;&lt;b style=&quot;font-size: 22px;&quot;&gt;Turn On GPS&lt;/b&gt;&lt;/font&gt;" style="rounded=1;whiteSpace=wrap;html=1;strokeWidth=3;fontSize=22;" parent="1" vertex="1">
          <mxGeometry x="1061.14" y="347" width="150" height="90" as="geometry"/>
        </mxCell>
        <mxCell id="nszsezrRDMAvSKFirYBr-15" value="&lt;font style=&quot;font-size: 22px;&quot;&gt;&lt;b style=&quot;font-size: 22px;&quot;&gt;Turn Off GPS&lt;/b&gt;&lt;/font&gt;" style="rounded=1;whiteSpace=wrap;html=1;strokeWidth=3;fontSize=22;" parent="1" vertex="1">
          <mxGeometry x="1501.14" y="342" width="140" height="100" as="geometry"/>
        </mxCell>
        <mxCell id="nszsezrRDMAvSKFirYBr-14" value="Click On Start Button" style="text;html=1;align=center;verticalAlign=middle;resizable=0;points=[];;autosize=1;fontStyle=1;strokeWidth=3;fontSize=22;" parent="1" vertex="1">
          <mxGeometry x="851.14" y="310" width="240" height="30" as="geometry"/>
        </mxCell>
        <mxCell id="nszsezrRDMAvSKFirYBr-18" value="Click On End Button" style="text;html=1;align=center;verticalAlign=middle;resizable=0;points=[];;autosize=1;fontStyle=1;strokeWidth=3;fontSize=22;" parent="1" vertex="1">
          <mxGeometry x="1241.14" y="310" width="230" height="30" as="geometry"/>
        </mxCell>
        <mxCell id="nszsezrRDMAvSKFirYBr-21" value="" style="endArrow=classic;html=1;exitX=0.5;exitY=1;exitDx=0;exitDy=0;entryX=0;entryY=0.5;entryDx=0;entryDy=0;strokeWidth=3;fontSize=22;edgeStyle=orthogonalEdgeStyle;" parent="1" source="nszsezrRDMAvSKFirYBr-9" edge="1" target="nszsezrRDMAvSKFirYBr-19">
          <mxGeometry width="50" height="50" relative="1" as="geometry">
            <mxPoint x="761.14" y="536.41" as="sourcePoint"/>
            <mxPoint x="921.14" y="517" as="targetPoint"/>
          </mxGeometry>
        </mxCell>
        <mxCell id="nszsezrRDMAvSKFirYBr-22" value="Click On Massage Icon" style="text;html=1;align=center;verticalAlign=middle;resizable=0;points=[];;autosize=1;fontStyle=1;strokeWidth=3;fontSize=22;" parent="1" vertex="1">
          <mxGeometry x="766.14" y="570" width="260" height="30" as="geometry"/>
        </mxCell>
        <mxCell id="b3oCx8BXnExJtXzjQgK7-1" value="" style="endArrow=classic;html=1;entryX=0.5;entryY=1;entryDx=0;entryDy=0;strokeWidth=3;fontSize=22;edgeStyle=orthogonalEdgeStyle;" parent="1" target="nszsezrRDMAvSKFirYBr-4" edge="1">
          <mxGeometry width="50" height="50" relative="1" as="geometry">
            <mxPoint x="671.14" y="380" as="sourcePoint"/>
            <mxPoint x="613.27" y="467" as="targetPoint"/>
            <Array as="points">
              <mxPoint x="671.14" y="510"/>
              <mxPoint x="381.14" y="510"/>
            </Array>
          </mxGeometry>
        </mxCell>
        <mxCell id="b3oCx8BXnExJtXzjQgK7-2" value="If Incorrect Username &amp;amp; PassWord" style="text;html=1;align=center;verticalAlign=middle;resizable=0;points=[];;autosize=1;fontStyle=1;strokeWidth=3;fontSize=22;" parent="1" vertex="1">
          <mxGeometry x="331.14" y="528.5" width="380" height="30" as="geometry"/>
        </mxCell>
      </root>
    </mxGraphModel>
  </diagram>
  <diagram id="7KiOAj0awf5sy_c0wAzI" name="two">
    <mxGraphModel dx="2880" dy="1497" grid="1" gridSize="10" guides="1" tooltips="1" connect="1" arrows="1" fold="1" page="1" pageScale="1" pageWidth="1169" pageHeight="827" math="0" shadow="0">
      <root>
        <mxCell id="rG749E4P2XZSz4_UwMv6-0"/>
        <mxCell id="rG749E4P2XZSz4_UwMv6-1" parent="rG749E4P2XZSz4_UwMv6-0"/>
        <mxCell id="rG749E4P2XZSz4_UwMv6-2" value="&lt;font style=&quot;font-size: 17px;&quot;&gt;&lt;b style=&quot;font-size: 17px;&quot;&gt;Login Activity&lt;/b&gt;&lt;/font&gt;" style="rounded=1;whiteSpace=wrap;html=1;strokeWidth=4;fontSize=17;" vertex="1" parent="rG749E4P2XZSz4_UwMv6-1">
          <mxGeometry x="290.67" y="98.85999999999999" width="145.5" height="82.29" as="geometry"/>
        </mxCell>
        <mxCell id="rG749E4P2XZSz4_UwMv6-3" value="" style="endArrow=classic;html=1;entryX=0;entryY=0.5;entryDx=0;entryDy=0;exitX=1;exitY=0.5;exitDx=0;exitDy=0;strokeWidth=4;fontSize=17;" edge="1" parent="rG749E4P2XZSz4_UwMv6-1" source="rG749E4P2XZSz4_UwMv6-2" target="rG749E4P2XZSz4_UwMv6-5">
          <mxGeometry width="50" height="50" relative="1" as="geometry">
            <mxPoint x="463.29999999999995" y="157.12000000000012" as="sourcePoint"/>
            <mxPoint x="633.3" y="157.12" as="targetPoint"/>
          </mxGeometry>
        </mxCell>
        <mxCell id="rG749E4P2XZSz4_UwMv6-4" value="" style="edgeStyle=orthogonalEdgeStyle;rounded=0;orthogonalLoop=1;jettySize=auto;html=1;strokeWidth=4;fontSize=17;" edge="1" parent="rG749E4P2XZSz4_UwMv6-1" source="rG749E4P2XZSz4_UwMv6-5" target="rG749E4P2XZSz4_UwMv6-9">
          <mxGeometry relative="1" as="geometry">
            <Array as="points">
              <mxPoint x="870.67" y="140"/>
              <mxPoint x="870.67" y="140"/>
            </Array>
          </mxGeometry>
        </mxCell>
        <mxCell id="rG749E4P2XZSz4_UwMv6-5" value="&lt;font style=&quot;font-size: 17px;&quot;&gt;&lt;b style=&quot;font-size: 17px;&quot;&gt;User List&lt;/b&gt;&lt;/font&gt;" style="rounded=1;whiteSpace=wrap;html=1;strokeWidth=4;fontSize=17;" vertex="1" parent="rG749E4P2XZSz4_UwMv6-1">
          <mxGeometry x="653.3" y="110.00000000000003" width="120" height="60" as="geometry"/>
        </mxCell>
        <mxCell id="rG749E4P2XZSz4_UwMv6-6" value="" style="edgeStyle=orthogonalEdgeStyle;rounded=0;orthogonalLoop=1;jettySize=auto;html=1;strokeWidth=4;fontSize=17;" edge="1" parent="rG749E4P2XZSz4_UwMv6-1" source="rG749E4P2XZSz4_UwMv6-9" target="rG749E4P2XZSz4_UwMv6-12">
          <mxGeometry relative="1" as="geometry">
            <Array as="points">
              <mxPoint x="1119.67" y="240"/>
              <mxPoint x="701.67" y="240"/>
            </Array>
          </mxGeometry>
        </mxCell>
        <mxCell id="rG749E4P2XZSz4_UwMv6-7" value="" style="edgeStyle=orthogonalEdgeStyle;rounded=0;orthogonalLoop=1;jettySize=auto;html=1;strokeWidth=4;fontSize=17;" edge="1" parent="rG749E4P2XZSz4_UwMv6-1" source="rG749E4P2XZSz4_UwMv6-9" target="rG749E4P2XZSz4_UwMv6-11">
          <mxGeometry relative="1" as="geometry">
            <Array as="points">
              <mxPoint x="1149.67" y="290"/>
              <mxPoint x="949.67" y="290"/>
            </Array>
          </mxGeometry>
        </mxCell>
        <mxCell id="rG749E4P2XZSz4_UwMv6-8" value="" style="edgeStyle=orthogonalEdgeStyle;rounded=0;orthogonalLoop=1;jettySize=auto;html=1;strokeWidth=4;fontSize=17;" edge="1" parent="rG749E4P2XZSz4_UwMv6-1" source="rG749E4P2XZSz4_UwMv6-9" target="rG749E4P2XZSz4_UwMv6-10">
          <mxGeometry relative="1" as="geometry">
            <Array as="points">
              <mxPoint x="1179.67" y="460"/>
              <mxPoint x="1179.67" y="460"/>
            </Array>
          </mxGeometry>
        </mxCell>
        <mxCell id="rG749E4P2XZSz4_UwMv6-9" value="&lt;font style=&quot;font-size: 17px;&quot;&gt;&lt;b style=&quot;font-size: 17px;&quot;&gt;User Information&lt;/b&gt;&lt;/font&gt;" style="rounded=1;whiteSpace=wrap;html=1;fontSize=17;" vertex="1" parent="rG749E4P2XZSz4_UwMv6-1">
          <mxGeometry x="1080.67" y="110.00000000000003" width="120" height="60" as="geometry"/>
        </mxCell>
        <mxCell id="rG749E4P2XZSz4_UwMv6-10" value="&lt;font style=&quot;font-size: 17px;&quot;&gt;&lt;b style=&quot;font-size: 17px;&quot;&gt;Live Location&lt;/b&gt;&lt;/font&gt;" style="rounded=1;whiteSpace=wrap;html=1;fontSize=17;" vertex="1" parent="rG749E4P2XZSz4_UwMv6-1">
          <mxGeometry x="1110.67" y="510" width="120" height="60" as="geometry"/>
        </mxCell>
        <mxCell id="rG749E4P2XZSz4_UwMv6-11" value="&lt;font style=&quot;font-size: 17px;&quot;&gt;&lt;b style=&quot;font-size: 17px;&quot;&gt;Show The Past Route&lt;/b&gt;&lt;/font&gt;" style="rounded=1;whiteSpace=wrap;html=1;strokeWidth=4;fontSize=17;" vertex="1" parent="rG749E4P2XZSz4_UwMv6-1">
          <mxGeometry x="900.67" y="460" width="120" height="60" as="geometry"/>
        </mxCell>
        <mxCell id="rG749E4P2XZSz4_UwMv6-12" value="&lt;font style=&quot;font-size: 17px;&quot;&gt;&lt;b style=&quot;font-size: 17px;&quot;&gt;Chat Activity&lt;/b&gt;&lt;/font&gt;" style="rounded=1;whiteSpace=wrap;html=1;strokeWidth=4;fontSize=17;" vertex="1" parent="rG749E4P2XZSz4_UwMv6-1">
          <mxGeometry x="641.4699999999999" y="400.00000000000006" width="120" height="60" as="geometry"/>
        </mxCell>
        <mxCell id="rG749E4P2XZSz4_UwMv6-13" value="Enter Username &amp;amp; PassWord" style="text;html=1;align=center;verticalAlign=middle;resizable=0;points=[];;autosize=1;fontStyle=1;strokeWidth=4;fontSize=17;" vertex="1" parent="rG749E4P2XZSz4_UwMv6-1">
          <mxGeometry x="430.67" y="181.15000000000003" width="250" height="30" as="geometry"/>
        </mxCell>
        <mxCell id="rG749E4P2XZSz4_UwMv6-14" value="" style="endArrow=classic;html=1;fontSize=17;strokeWidth=4;" edge="1" parent="rG749E4P2XZSz4_UwMv6-1">
          <mxGeometry width="50" height="50" relative="1" as="geometry">
            <mxPoint x="50" y="139.64" as="sourcePoint"/>
            <mxPoint x="292.5" y="139.16999999999996" as="targetPoint"/>
          </mxGeometry>
        </mxCell>
        <mxCell id="rG749E4P2XZSz4_UwMv6-15" value="Open Application" style="text;html=1;align=center;verticalAlign=middle;resizable=0;points=[];;autosize=1;fontStyle=1;fontSize=17;" vertex="1" parent="rG749E4P2XZSz4_UwMv6-1">
          <mxGeometry x="70.67" y="101.71000000000004" width="160" height="30" as="geometry"/>
        </mxCell>
        <mxCell id="rG749E4P2XZSz4_UwMv6-16" value="Click On Desired User" style="text;html=1;align=center;verticalAlign=middle;resizable=0;points=[];;autosize=1;fontStyle=1;strokeWidth=4;fontSize=17;" vertex="1" parent="rG749E4P2XZSz4_UwMv6-1">
          <mxGeometry x="800.6700000000001" y="86.56000000000003" width="190" height="30" as="geometry"/>
        </mxCell>
        <mxCell id="rG749E4P2XZSz4_UwMv6-17" value="Click On Massage Icon" style="text;html=1;align=center;verticalAlign=middle;resizable=0;points=[];;autosize=1;fontStyle=1;strokeWidth=4;fontSize=17;" vertex="1" parent="rG749E4P2XZSz4_UwMv6-1">
          <mxGeometry x="730.67" y="198.85" width="200" height="30" as="geometry"/>
        </mxCell>
        <mxCell id="rG749E4P2XZSz4_UwMv6-18" value="Click On Map Icon" style="text;html=1;align=center;verticalAlign=middle;resizable=0;points=[];;autosize=1;fontStyle=1;strokeWidth=4;fontSize=17;" vertex="1" parent="rG749E4P2XZSz4_UwMv6-1">
          <mxGeometry x="970.67" y="250" width="160" height="30" as="geometry"/>
        </mxCell>
        <mxCell id="rG749E4P2XZSz4_UwMv6-19" value="&lt;font style=&quot;font-size: 17px;&quot;&gt;Click On Location Icon&lt;/font&gt;" style="text;html=1;align=center;verticalAlign=middle;resizable=0;points=[];;autosize=1;fontStyle=1;direction=east;rotation=90;fontSize=17;" vertex="1" parent="rG749E4P2XZSz4_UwMv6-1">
          <mxGeometry x="1100.67" y="350" width="200" height="30" as="geometry"/>
        </mxCell>
        <mxCell id="rG749E4P2XZSz4_UwMv6-20" value="" style="endArrow=classic;html=1;entryX=0.5;entryY=0;entryDx=0;entryDy=0;strokeWidth=4;fontSize=17;" edge="1" parent="rG749E4P2XZSz4_UwMv6-1">
          <mxGeometry width="50" height="50" relative="1" as="geometry">
            <mxPoint x="649.67" y="131.71" as="sourcePoint"/>
            <mxPoint x="381.67" y="99.42000000000004" as="targetPoint"/>
            <Array as="points">
              <mxPoint x="649.67" y="73.71000000000001"/>
              <mxPoint x="379.67" y="73.71000000000001"/>
            </Array>
          </mxGeometry>
        </mxCell>
        <mxCell id="rG749E4P2XZSz4_UwMv6-21" value="If Incorrect Username &amp;amp; PassWord" style="text;html=1;align=center;verticalAlign=middle;resizable=0;points=[];;autosize=1;fontStyle=1;strokeWidth=4;fontSize=17;" vertex="1" parent="rG749E4P2XZSz4_UwMv6-1">
          <mxGeometry x="368.17" y="40" width="290" height="30" as="geometry"/>
        </mxCell>
      </root>
    </mxGraphModel>
  </diagram>
</mxfile>
